<svg xmlns="http://www.w3.org/2000/svg" version="1.1" xmlns:xlink="http://www.w3.org/1999/xlink" xmlns:svgjs="http://svgjs.dev/svgjs" width="1500" height="1332" viewBox="0 0 1500 1332"><g transform="matrix(1,0,0,1,0.055209715436831175,0.5392712550607257)"><svg viewBox="0 0 278 247" data-background-color="#ffffff" preserveAspectRatio="xMidYMid meet" height="1332" width="1500" xmlns="http://www.w3.org/2000/svg" xmlns:xlink="http://www.w3.org/1999/xlink"><g id="tight-bounds" transform="matrix(1,0,0,1,-0.010232200594288088,-0.09999999999999432)"><svg viewBox="0 0 278.0204644011886 247.2" height="247.2" width="278.0204644011886"><g><svg viewBox="0 0 395.52 351.6739108057615" height="247.2" width="278.0204644011886"><g transform="matrix(1,0,0,1,0,284.1506616912397)"><svg viewBox="0 0 395.52 67.52324911452185" height="67.52324911452185" width="395.52"><g id="textblocktransform"><svg viewBox="0 0 395.52 67.52324911452185" height="67.52324911452185" width="395.52" id="textblock"><g><svg viewBox="0 0 395.52 67.52324911452185" height="67.52324911452185" width="395.52"><g transform="matrix(1,0,0,1,0,0)"><svg width="395.52" viewBox="2.25 -35.45 211.73 36.150000000000006" height="67.52324911452185" data-palette-color="#4d7e3e"><path d="M12.7 0.55L12.7 0.55Q9.03 0.55 6.28-0.68 3.53-1.9 2.25-3.25L2.25-3.25 4.8-8.5Q5.33-7.83 6.46-6.98 7.6-6.13 9.11-5.49 10.63-4.85 12.25-4.85L12.25-4.85Q14.13-4.85 15.51-5.9 16.9-6.95 16.9-9L16.9-9Q16.9-11.03 15.46-12.21 14.03-13.4 11.55-14.9L11.55-14.9Q9.53-16.13 7.58-17.51 5.63-18.9 4.34-20.91 3.05-22.93 3.05-26L3.05-26Q3.05-30.13 5.69-32.79 8.33-35.45 13.35-35.45L13.35-35.45Q15.9-35.45 17.69-34.85 19.48-34.25 20.59-33.48 21.7-32.7 22.25-32.2L22.25-32.2 19.45-27.1Q19.1-27.6 18.28-28.33 17.45-29.05 16.25-29.6 15.05-30.15 13.6-30.15L13.6-30.15Q11.58-30.15 10.56-28.99 9.55-27.83 9.55-26.25L9.55-26.25Q9.55-24.23 11.04-22.95 12.53-21.68 14.65-20.4L14.65-20.4Q17-19 19-17.59 21-16.18 22.23-14.21 23.45-12.25 23.45-9.2L23.45-9.2Q23.45-4.63 20.58-2.04 17.7 0.55 12.7 0.55ZM31.35 0L24.35 0 39.1-35.45 39.6-35.45 54.4 0 47.6 0 45.65-5.05 33.2-5.05 31.35 0ZM39.3-22.2L38.5-19.4 35-9.9 43.8-9.9 40.15-19.4 39.3-22.2ZM66.25 0.55L66.25 0.55Q62.57 0.55 59.82-0.68 57.07-1.9 55.8-3.25L55.8-3.25 58.34-8.5Q58.87-7.83 60.01-6.98 61.15-6.13 62.66-5.49 64.17-4.85 65.8-4.85L65.8-4.85Q67.67-4.85 69.06-5.9 70.45-6.95 70.45-9L70.45-9Q70.45-11.03 69.01-12.21 67.57-13.4 65.09-14.9L65.09-14.9Q63.07-16.13 61.12-17.51 59.17-18.9 57.88-20.91 56.59-22.93 56.59-26L56.59-26Q56.59-30.13 59.23-32.79 61.87-35.45 66.9-35.45L66.9-35.45Q69.45-35.45 71.23-34.85 73.02-34.25 74.13-33.48 75.25-32.7 75.8-32.2L75.8-32.2 73-27.1Q72.65-27.6 71.82-28.33 71-29.05 69.8-29.6 68.59-30.15 67.15-30.15L67.15-30.15Q65.12-30.15 64.11-28.99 63.09-27.83 63.09-26.25L63.09-26.25Q63.09-24.23 64.58-22.95 66.07-21.68 68.2-20.4L68.2-20.4Q70.55-19 72.55-17.59 74.55-16.18 75.77-14.21 77-12.25 77-9.2L77-9.2Q77-4.63 74.12-2.04 71.25 0.55 66.25 0.55ZM101.99 0L82.79 0 82.79-34.85 100.99-34.85 100.99-29.4 89.04-29.4 89.04-21.25 98.54-21.25 98.54-15.95 89.04-15.95 89.04-5.65 101.99-5.65 101.99 0ZM110.19 0L103.19 0 117.94-35.45 118.44-35.45 133.24 0 126.44 0 124.49-5.05 112.04-5.05 110.19 0ZM118.14-22.2L117.34-19.4 113.84-9.9 122.64-9.9 118.99-19.4 118.14-22.2ZM161.24 0.7L160.74 0.7 144.04-18.35 142.49-20.35 142.74-15.5 142.74 0 136.59 0 136.59-35.45 137.14-35.45 153.59-16.25 155.34-13.98 155.09-18.75 155.09-34.85 161.24-34.85 161.24 0.7ZM188.69 0L169.49 0 169.49-34.85 187.69-34.85 187.69-29.4 175.74-29.4 175.74-21.25 185.24-21.25 185.24-15.95 175.74-15.95 175.74-5.65 188.69-5.65 188.69 0ZM213.98 0L194.78 0 194.78-34.85 212.98-34.85 212.98-29.4 201.03-29.4 201.03-21.25 210.53-21.25 210.53-15.95 201.03-15.95 201.03-5.65 213.98-5.65 213.98 0Z" opacity="1" transform="matrix(1,0,0,1,0,0)" fill="#4d7e3e" class="wordmark-text-0" data-fill-palette-color="primary" id="text-0"></path></svg></g></svg></g></svg></g></svg></g><g transform="matrix(1,0,0,1,75.61044235182997,0)"><svg viewBox="0 0 244.29911529634003 244.29911529634003" height="244.29911529634003" width="244.29911529634003"><g><svg viewBox="0 0 244.29911529634003 244.29911529634003" height="244.29911529634003" width="244.29911529634003"><g transform="matrix(1,0,0,1,77.44114159081803,64.56770396019793)"><svg viewBox="0 0 89.41683211470398 115.16370737594417" height="115.16370737594417" width="89.41683211470398"><g><svg xmlns:x="http://ns.adobe.com/Extensibility/1.0/" xmlns:i="http://ns.adobe.com/AdobeIllustrator/10.0/" xmlns:graph="http://ns.adobe.com/Graphs/1.0/" xmlns="http://www.w3.org/2000/svg" xmlns:xlink="http://www.w3.org/1999/xlink" version="1.1" x="0" y="0" viewBox="17.362 7.672 65.277 84.07300000000001" enable-background="new 0 0 100 100" xml:space="preserve" height="115.16370737594417" width="89.41683211470398" class="icon-dxe-0" data-fill-palette-color="accent" id="dxe-0"><g fill="#4d7e3e" data-fill-palette-color="accent"><path d="M81.742 81.747C81.563 81.548 77.361 76.917 71.38 74.793 73.267 68.831 72.175 62.799 72.112 62.47L71.863 61.15 70.523 61.254C70.086 61.287 59.756 62.157 54.373 69.185A30 30 0 0 0 51.5 73.717V53.354C51.591 53.593 51.682 53.833 51.779 54.07 54.066 59.591 59.729 62.37 59.968 62.486L61.481 63.215 62.036 61.63C62.124 61.379 64.162 55.411 61.875 49.889 60.625 46.872 58.678 43.84 56.539 42.279 56.736 42.089 56.923 41.889 57.101 41.683 58.646 43.704 61.502 45.602 64.598 46.885 66.327 47.602 68.277 47.965 70.39 47.965 73.671 47.965 76.232 47.083 76.339 47.045L77.924 46.49 77.195 44.978C77.079 44.738 74.3 39.075 68.779 36.789 66.912 36.016 65.038 35.491 63.316 35.239 64.981 34.976 66.78 34.463 68.571 33.72 74.092 31.432 76.872 25.769 76.988 25.529L77.717 24.016 76.132 23.462C76.025 23.424 73.464 22.542 70.182 22.542 68.068 22.542 66.12 22.905 64.389 23.622 61.772 24.706 59.463 26.15 57.886 27.688 57.429 28.134 57.066 28.56 56.771 28.965 56.637 28.825 56.512 28.675 56.37 28.544 58.473 26.963 60.382 23.972 61.614 20.998 63.902 15.476 61.862 9.507 61.774 9.256L61.22 7.672 59.707 8.401C59.468 8.516 53.805 11.296 51.519 16.817 50.637 18.947 50.044 21.203 49.866 23.227 49.676 21.231 49.089 19.018 48.222 16.925 45.934 11.403 40.272 8.624 40.033 8.508L38.519 7.78 37.965 9.365C37.877 9.616 35.839 15.586 38.126 21.107 39.375 24.124 41.322 27.155 43.461 28.717 43.342 28.833 43.226 28.951 43.113 29.072 41.646 26.919 38.625 24.873 35.349 23.515 33.619 22.798 31.669 22.435 29.556 22.435 26.274 22.435 23.714 23.317 23.607 23.354L22.022 23.908 22.751 25.421C22.867 25.661 25.645 31.323 31.167 33.61 33.851 34.722 36.559 35.334 38.792 35.334A9 9 0 0 0 40.588 35.159 9 9 0 0 0 40.582 35.678 9.5 9.5 0 0 0 39.052 35.552C36.82 35.552 34.112 36.164 31.428 37.276 25.906 39.564 23.127 45.226 23.011 45.466L22.282 46.979 23.867 47.533C23.974 47.571 26.536 48.453 29.819 48.453 31.932 48.453 33.881 48.09 35.611 47.373 37.691 46.511 39.661 45.369 41.203 44.101 39.877 45.697 38.71 47.74 37.865 49.78 35.578 55.301 37.617 61.27 37.705 61.522L38.259 63.107 39.772 62.378C40.012 62.262 45.674 59.483 47.962 53.961 48.158 53.487 48.334 53.008 48.501 52.525V73.713A30 30 0 0 0 45.628 69.182C40.245 62.155 29.915 61.285 29.478 61.251L28.139 61.147 27.889 62.467C27.827 62.796 26.734 68.828 28.621 74.79 22.64 76.914 18.437 81.545 18.258 81.744L17.362 82.745 18.258 83.746C18.55 84.072 25.523 91.745 34.376 91.745 38.08 91.745 41.698 91.085 44.565 89.887 45.018 89.698 45.323 89.311 45.436 88.869 46.611 88.778 47.651 88.416 48.516 87.754 49.145 87.272 49.63 86.652 50.002 85.942 50.375 86.653 50.859 87.272 51.488 87.754 52.352 88.416 53.392 88.778 54.567 88.869 54.679 89.31 54.985 89.697 55.438 89.887 58.304 91.085 61.922 91.745 65.626 91.745 74.479 91.745 81.451 84.072 81.743 83.746L82.639 82.745zM32.315 30.839C29.509 29.676 27.521 27.323 26.43 25.733 27.28 25.574 28.366 25.435 29.556 25.435 31.273 25.435 32.836 25.722 34.201 26.287 39.299 28.4 41.271 31.198 41.029 31.782 40.957 31.955 40.294 32.336 38.792 32.336 36.971 32.335 34.61 31.79 32.315 30.839M47.54 29.558A6.4 6.4 0 0 1 49.997 29.067 6.41 6.41 0 0 1 55.94 33.038 6.436 6.436 0 0 1 50.004 41.928 6.41 6.41 0 0 1 44.062 37.959V37.957A6.435 6.435 0 0 1 47.54 29.558M49.82 26.076A9 9 0 0 0 49.877 25.662C49.893 25.8 49.911 25.937 49.933 26.07 49.896 26.07 49.858 26.075 49.82 26.076M43.299 42.104A9 9 0 0 0 42.978 42.341C43.063 42.235 43.142 42.128 43.22 42.021zM59.104 51.036C60.266 53.841 60.008 56.909 59.656 58.806 58.065 57.715 55.714 55.727 54.552 52.922 52.441 47.823 53.025 44.451 53.69 44.196 54.744 44.196 57.279 46.632 59.104 51.036M73.518 44.666C72.667 44.825 71.581 44.965 70.391 44.965 68.673 44.965 67.112 44.678 65.747 44.113 60.648 42.001 58.676 39.202 58.918 38.618 58.989 38.445 59.652 38.065 61.155 38.065 62.976 38.065 65.338 38.61 67.632 39.56 70.438 40.722 72.427 43.076 73.518 44.666M59.982 29.836C61.273 28.577 63.297 27.322 65.538 26.394 66.902 25.829 68.465 25.542 70.183 25.542 71.373 25.542 72.46 25.682 73.31 25.841 72.219 27.432 70.23 29.786 67.424 30.948 65.131 31.898 62.771 32.443 60.949 32.443 59.446 32.443 58.783 32.063 58.711 31.889 58.636 31.708 58.852 30.939 59.982 29.836M54.29 17.965C55.453 15.158 57.809 13.169 59.398 12.079 59.752 13.968 60.011 17.029 58.842 19.851 57.017 24.255 54.482 26.691 53.426 26.691L53.347 26.679C52.763 26.437 52.179 23.064 54.29 17.965M46.312 26.799C45.256 26.799 42.721 24.363 40.898 19.959 39.736 17.154 39.994 14.085 40.346 12.189 41.936 13.281 44.288 15.269 45.45 18.073 47.561 23.172 46.976 26.544 46.391 26.786 46.384 26.79 46.363 26.799 46.312 26.799M34.462 44.602C33.098 45.166 31.536 45.453 29.818 45.453A17 17 0 0 1 26.69 45.154C27.781 43.563 29.77 41.21 32.575 40.047 34.869 39.097 37.23 38.552 39.051 38.552 40.553 38.552 41.217 38.932 41.288 39.106 41.531 39.691 39.561 42.49 34.462 44.602M45.189 52.814C44.027 55.619 41.675 57.606 40.085 58.698 39.732 56.802 39.475 53.732 40.636 50.928 42.456 46.534 44.985 44.1 46.123 44.1H46.131C46.715 44.342 47.299 47.716 45.189 52.814M21.5 82.747C22.995 81.354 26.029 78.865 29.746 77.576 30.189 78.456 30.712 79.314 31.336 80.129 34.166 83.823 37.583 86.609 40.791 87.977 38.823 88.476 36.626 88.748 34.374 88.748 28.634 88.748 23.581 84.683 21.5 82.747M46.69 85.375C46.225 85.731 45.614 85.912 44.875 85.912 42.223 85.912 37.745 83.56 33.719 78.305 30.227 73.746 30.383 67.261 30.655 64.434 33.453 64.904 39.742 66.434 43.245 71.008 48.082 77.324 48.943 83.649 46.69 85.375M56.755 71.008C60.247 66.449 66.548 64.91 69.349 64.436 69.624 67.259 69.787 73.731 66.283 78.305 62.851 82.784 58.263 85.913 55.127 85.912 54.388 85.912 53.776 85.731 53.312 85.376 51.058 83.649 51.918 77.324 56.755 71.008M65.625 88.748C63.373 88.748 61.176 88.476 59.208 87.977 62.416 86.611 65.833 83.824 68.663 80.129A16 16 0 0 0 70.254 77.576C73.973 78.865 77.007 81.356 78.502 82.749 76.428 84.685 71.388 88.748 65.625 88.748" fill="#4d7e3e" data-fill-palette-color="accent"></path><path d="M50 33.748C50.827 33.748 51.5 34.421 51.5 35.248A1 1 0 1 0 53.5 35.248C53.5 33.318 51.93 31.748 50 31.748A1 1 0 0 0 50 33.748" fill="#4d7e3e" data-fill-palette-color="accent"></path><path d="M33.5 67.748A1 1 0 1 0 31.5 67.748C31.5 76.57 37.556 83.748 45 83.748A1 1 0 1 0 45 81.748C38.659 81.748 33.5 75.468 33.5 67.748" fill="#4d7e3e" data-fill-palette-color="accent"></path><path d="M68.5 67.748A1 1 0 1 0 66.5 67.748C66.5 75.468 61.341 81.748 55 81.748A1 1 0 1 0 55 83.748C62.444 83.748 68.5 76.57 68.5 67.748" fill="#4d7e3e" data-fill-palette-color="accent"></path><path d="M32.5 84.248C28.38 84.248 26.202 83.168 26 82.723A1 1 0 0 0 24 82.748C24 85.152 28.406 86.248 32.5 86.248A1 1 0 1 0 32.5 84.248" fill="#4d7e3e" data-fill-palette-color="accent"></path><path d="M67.5 84.248A1 1 0 1 0 67.5 86.248C71.594 86.248 76 85.152 76 82.748 76 82.195 75.555 81.729 75.003 81.729A0.98 0.98 0 0 0 74.005 82.71C73.838 83.148 71.657 84.248 67.5 84.248" fill="#4d7e3e" data-fill-palette-color="accent"></path></g></svg><g></g></g></svg></g><g id="text-0"><path d="M21.861 90.635v0c-0.414 1.289-0.991 2.35-1.73 3.183-0.746 0.831-1.426 1.394-2.042 1.689v0l-2.343-2.242c0.302-0.107 0.663-0.312 1.084-0.613 0.429-0.306 0.84-0.688 1.234-1.146 0.402-0.462 0.694-0.978 0.877-1.545v0c0.213-0.664 0.213-1.298-0.002-1.902-0.212-0.61-0.679-1.031-1.401-1.263v0c-0.715-0.23-1.362-0.156-1.94 0.222-0.583 0.369-1.276 0.903-2.078 1.603v0c-0.664 0.575-1.348 1.127-2.052 1.654-0.713 0.531-1.496 0.91-2.351 1.136-0.854 0.226-1.82 0.165-2.899-0.181v0c-1.455-0.467-2.502-1.318-3.141-2.551-0.635-1.225-0.668-2.721-0.1-4.489v0c0.289-0.9 0.639-1.629 1.051-2.187 0.414-0.564 0.817-0.998 1.21-1.301 0.4-0.301 0.72-0.522 0.962-0.663v0l2.214 2.348c-0.218 0.064-0.5 0.198-0.848 0.404-0.35 0.212-0.688 0.497-1.014 0.857-0.327 0.36-0.572 0.795-0.736 1.305v0c-0.23 0.715-0.198 1.317 0.096 1.806 0.296 0.482 0.721 0.813 1.276 0.99v0c0.708 0.228 1.373 0.152 1.995-0.225 0.615-0.38 1.266-0.871 1.952-1.475v0c0.762-0.663 1.502-1.267 2.219-1.811 0.725-0.549 1.501-0.926 2.328-1.133 0.835-0.211 1.789-0.144 2.861 0.201v0c1.608 0.517 2.706 1.429 3.293 2.737 0.582 1.3 0.591 2.83 0.025 4.592z" fill="#4d7e3e" data-fill-palette-color="accent"></path><path d="M36.711 61.379l-2.438 3.02-10.15-18.705 0.177-0.219 20.441 5.961-2.369 2.934-2.857-0.912-4.334 5.367zM29.903 50.22l0.927 1.317 2.88 4.82 3.064-3.794-5.369-1.738z" fill="#4d7e3e" data-fill-palette-color="accent"></path><path d="M67.826 33.388v0c-1.154 0.708-2.283 1.137-3.386 1.287-1.107 0.144-1.99 0.128-2.649-0.049v0l-0.317-3.227c0.299 0.115 0.706 0.196 1.222 0.241 0.525 0.048 1.086 0.026 1.682-0.065 0.606-0.089 1.164-0.289 1.672-0.601v0c0.594-0.365 1.007-0.846 1.238-1.444 0.237-0.601 0.157-1.225-0.239-1.87v0c-0.393-0.64-0.932-1.005-1.617-1.097-0.683-0.1-1.556-0.146-2.621-0.138v0c-0.878 0.004-1.756-0.023-2.634-0.082-0.887-0.061-1.728-0.285-2.523-0.67-0.795-0.385-1.489-1.061-2.081-2.026v0c-0.799-1.303-1.04-2.63-0.721-3.982 0.317-1.343 1.266-2.499 2.849-3.471v0c0.806-0.494 1.546-0.819 2.222-0.974 0.681-0.159 1.27-0.225 1.766-0.199 0.499 0.032 0.887 0.073 1.162 0.125v0l0.149 3.224c-0.207-0.093-0.509-0.175-0.906-0.247-0.403-0.067-0.846-0.071-1.328-0.01-0.482 0.06-0.952 0.23-1.409 0.51v0c-0.64 0.393-1.008 0.87-1.104 1.432-0.09 0.559 0.018 1.086 0.323 1.584v0c0.389 0.634 0.942 1.01 1.66 1.128 0.714 0.112 1.528 0.164 2.442 0.154v0c1.011-0.007 1.965 0.017 2.863 0.071 0.908 0.057 1.742 0.276 2.504 0.658 0.771 0.384 1.451 1.057 2.04 2.017v0c0.884 1.44 1.122 2.847 0.714 4.221-0.405 1.365-1.396 2.532-2.973 3.5z" fill="#4d7e3e" data-fill-palette-color="accent"></path><path d="M107.591 18.786l-10.419 2.2-3.991-18.9 9.878-2.086 0.623 2.952-6.484 1.369 0.933 4.417 5.156-1.088 0.609 2.882-5.156 1.089 1.18 5.588 7.025-1.483z" fill="#4d7e3e" data-fill-palette-color="accent"></path><path d="M134.729 18.884l-3.829-0.64 11.307-18.03 0.278 0.047 4.849 20.733-3.719-0.622-0.61-2.937-6.803-1.138zM141.104 7.472l-0.692 1.455-2.784 4.876 4.81 0.805-1.123-5.53z" fill="#4d7e3e" data-fill-palette-color="accent"></path><path d="M182.064 36.752l-0.245-0.139-2.85-13.76-0.199-1.383-1.2 2.405-4.237 7.481-2.966-1.68 9.683-17.097 0.262 0.149 2.693 13.752 0.216 1.578 1.186-2.379 4.395-7.761 2.975 1.684z" fill="#4d7e3e" data-fill-palette-color="accent"></path><path d="M209.062 63.002l-6.722-8.259 14.982-12.193 6.373 7.83-2.34 1.904-4.183-5.14-3.502 2.85 3.326 4.087-2.285 1.86-3.326-4.087-4.43 3.605 4.532 5.569z" fill="#4d7e3e" data-fill-palette-color="accent"></path><path d="M224.655 96.278l-3.509-10.055 18.238-6.364 3.327 9.532-2.849 0.994-2.183-6.257-4.263 1.488 1.736 4.975-2.782 0.971-1.736-4.975-5.392 1.882 2.365 6.778z" fill="#4d7e3e" data-fill-palette-color="accent"></path><path d="M8.145 162.7v0c-0.416-1.296-0.565-2.494-0.447-3.595 0.122-1.11 0.348-1.964 0.677-2.562v0l3.21 0.458c-0.183 0.263-0.361 0.641-0.534 1.133-0.164 0.496-0.277 1.046-0.336 1.65-0.051 0.608 0.014 1.196 0.197 1.764v0c0.213 0.664 0.583 1.179 1.108 1.545 0.528 0.373 1.153 0.443 1.874 0.211v0c0.715-0.23 1.198-0.666 1.449-1.31 0.259-0.64 0.511-1.477 0.756-2.514v0c0.204-0.854 0.44-1.701 0.705-2.539 0.27-0.847 0.687-1.611 1.25-2.292 0.563-0.681 1.384-1.194 2.462-1.541v0c1.449-0.465 2.791-0.386 4.026 0.238 1.238 0.631 2.14 1.83 2.708 3.598v0c0.287 0.894 0.427 1.69 0.419 2.39-0.01 0.693-0.088 1.282-0.235 1.765-0.149 0.477-0.28 0.84-0.391 1.087v0l-3.163-0.61c0.133-0.177 0.281-0.453 0.441-0.829 0.163-0.369 0.276-0.796 0.339-1.281 0.056-0.483 0.002-0.979-0.162-1.49v0c-0.23-0.715-0.606-1.185-1.129-1.411-0.523-0.226-1.063-0.25-1.618-0.072v0c-0.715 0.23-1.212 0.678-1.491 1.344-0.279 0.667-0.524 1.45-0.735 2.349v0c-0.227 0.981-0.477 1.903-0.749 2.764-0.264 0.866-0.675 1.625-1.233 2.277-0.55 0.655-1.361 1.155-2.433 1.499v0c-1.608 0.517-3.032 0.414-4.271-0.307-1.23-0.717-2.128-1.957-2.694-3.719z" fill="#4d7e3e" data-fill-palette-color="accent"></path><path d="M25.974 196.223l-2.439-3.02 20.422-5.985 0.177 0.219-10.13 18.729-2.369-2.933 1.492-2.602-4.334-5.366zM38.316 191.916l-1.49 0.636-5.311 1.794 3.064 3.794 2.822-4.877z" fill="#4d7e3e" data-fill-palette-color="accent"></path><path d="M60.293 227.821v0c-1.16-0.712-2.054-1.524-2.682-2.436-0.63-0.921-1.015-1.716-1.156-2.384v0l2.734-1.744c0.032 0.319 0.143 0.721 0.333 1.207 0.199 0.484 0.472 0.974 0.82 1.47 0.357 0.494 0.79 0.898 1.299 1.21v0c0.594 0.365 1.21 0.514 1.847 0.45 0.643-0.061 1.163-0.415 1.56-1.061v0c0.393-0.64 0.474-1.286 0.245-1.938-0.22-0.654-0.575-1.454-1.065-2.399v0c-0.402-0.781-0.775-1.577-1.119-2.386-0.347-0.819-0.529-1.669-0.546-2.553-0.017-0.883 0.271-1.808 0.864-2.773v0c0.796-1.297 1.866-2.111 3.21-2.443 1.35-0.328 2.816-0.007 4.398 0.965v0c0.8 0.491 1.425 1.004 1.875 1.54 0.444 0.532 0.768 1.03 0.972 1.493 0.198 0.46 0.335 0.819 0.412 1.078v0l-2.798 1.599c-0.014-0.221-0.082-0.526-0.205-0.916-0.117-0.386-0.31-0.784-0.578-1.193-0.272-0.403-0.636-0.744-1.093-1.025v0c-0.64-0.393-1.232-0.504-1.777-0.335-0.544 0.169-0.969 0.503-1.274 1v0c-0.393 0.64-0.477 1.304-0.254 1.991 0.223 0.687 0.547 1.441 0.973 2.26v0c0.467 0.892 0.878 1.754 1.233 2.586 0.364 0.829 0.547 1.673 0.547 2.53 0.01 0.856-0.28 1.763-0.868 2.723v0c-0.884 1.44-2.03 2.29-3.441 2.549-1.401 0.257-2.889-0.098-4.466-1.065z" fill="#4d7e3e" data-fill-palette-color="accent"></path><path d="M104.741 243.649l-10.419-2.2 3.991-18.9 9.868 2.084-0.623 2.951-6.474-1.367-0.935 4.428 5.146 1.086-0.607 2.873-5.146-1.087-1.18 5.589 7.025 1.483z" fill="#4d7e3e" data-fill-palette-color="accent"></path><path d="M137.009 243.658l-3.828 0.641 4.819-20.729 0.278-0.046 11.337 18.024-3.719 0.623-1.533-2.578-6.804 1.139zM139.321 230.792l-0.179 1.61-1.046 5.508 4.81-0.806-2.861-4.853z" fill="#4d7e3e" data-fill-palette-color="accent"></path><path d="M189.246 224.875l-0.236 0.133-13.262-4.623-1.293-0.55 1.441 2.28 4.232 7.473-2.957 1.675-9.683-17.098 0.263-0.148 13.179 4.763 1.464 0.626-1.426-2.231-4.4-7.77 2.966-1.68z" fill="#4d7e3e" data-fill-palette-color="accent"></path><path d="M219.768 194.638l-6.721 8.26-14.983-12.193 6.366-7.823 2.34 1.904-4.176 5.132 3.51 2.856 3.319-4.079 2.277 1.854-3.319 4.079 4.43 3.605 4.532-5.569z" fill="#4d7e3e" data-fill-palette-color="accent"></path><path d="M237.687 157.197l-3.508 10.054-18.239-6.364 3.323-9.523 2.849 0.994-2.18 6.247 4.272 1.491 1.733-4.965 2.772 0.967-1.733 4.966 5.393 1.881 2.366-6.778z" fill="#4d7e3e" data-fill-palette-color="accent"></path><path d="M1.589 124.465c0-4.145 3.36-7.506 7.505-7.506 4.145 0 7.506 3.36 7.506 7.506 0 4.145-3.36 7.506-7.506 7.506-4.145 0-7.506-3.36-7.505-7.506z" fill="#4d7e3e" data-fill-palette-color="accent"></path><path d="M227.595 124.465c0-4.145 3.36-7.506 7.506-7.506 4.145 0 7.506 3.36 7.506 7.506 0 4.145-3.36 7.506-7.506 7.506-4.145 0-7.506-3.36-7.506-7.506z" fill="#4d7e3e" data-fill-palette-color="accent"></path></g><g id="text-1"></g></svg></g></svg></g><g></g></svg></g><defs></defs></svg><rect width="278.0204644011886" height="247.2" fill="none" stroke="none" visibility="hidden"></rect></g></svg></g></svg>